# xmcd
#
# Track frame offsets:
#	182
#	10212
#	22562
#	36275
#	49425
#	60725
#	70637
#	82237
#	92312
#	103775
#	115900
#	127562
#	139687
#	151512
#	164375
#	174737
#
# Disc length: 2546
#
# Revision: 2
# Processed by: cddbd v1.5.1PL0 Copyright (c) Steve Scherf et al.
# Submitted via: CDex 1.51
# Normalized: r1:TDELIM( - )
#
DISCID=bf09f010
DTITLE=Various Artist - Stars Of Country And Western Vol 2
DYEAR=1988
DGENRE=Country
TTITLE0=Johnny Cash - Hey Porter
TTITLE1=Lynn Anderson - Listen To A Country Song
TTITLE2=Willie Nelson - A Moment Isn't Very Long
TTITLE3=Carl Perkins - Hallelujah Special
TTITLE4=Floyd Tillman - I'm Thinking Tonight Of My Blue Eyes
TTITLE5=Patsy Cline - Seven Lonely Days
TTITLE6=Frankie Laine - Mule Train
TTITLE7=Dave Dudley - Six Days On The Road
TTITLE8=Don Williams - Follow Me Back To Louisville
TTITLE9=Cowboy Copas - Settin' Flat On Ready
TTITLE10=Moon Mulligan - Jolie Blon
TTITLE11=Johnny Horton - Done Rovin'
TTITLE12=George Jones - Crazy Arms
TTITLE13=Slim Willet - Don't Let The Stars Get In Your Eyes
TTITLE14=Johnny Paycheck - A-11
TTITLE15=Joe South - Walking A Mile In My Shoes
EXTD=YEAR: 1988
EXTT0=
EXTT1=
EXTT2=
EXTT3=
EXTT4=
EXTT5=
EXTT6=
EXTT7=
EXTT8=
EXTT9=
EXTT10=
EXTT11=
EXTT12=
EXTT13=
EXTT14=
EXTT15=
PLAYORDER=
